<svg id="Layer_1" data-name="Layer 1" xmlns="http://www.w3.org/2000/svg" viewBox="0 0 512 512"><defs><style>.cls-1{fill:#456d84;}.cls-1,.cls-2,.cls-3,.cls-4{stroke:#000;stroke-width:1.5px;}.cls-1,.cls-2,.cls-3,.cls-4,.cls-6{stroke-miterlimit:10;}.cls-2{fill:#818282;}.cls-3{fill:#aef4ff;}.cls-4{fill:#abcfd3;}.cls-5{font-size:91.72px;fill:#f7931e;font-family:OratorStd, Orator Std;}.cls-6{fill:none;stroke:#db5d3b;stroke-width:9px;opacity:0.7;}</style></defs><title>Artboard 1</title><rect class="cls-1" x="120.23" y="292.92" width="273.13" height="81.08"/><rect class="cls-1" x="186.93" y="125.06" width="138.96" height="91.04" rx="13.65" ry="13.65"/><rect class="cls-2" x="212.54" y="88.07" width="86.77" height="29.87" rx="6.18" ry="6.18"/><rect class="cls-3" x="105" y="267.31" width="303" height="21.34" rx="10.67" ry="10.67"/><path class="cls-4" d="M204,197.61h90.33a13.51,13.51,0,0,1,13.51,13.51v0a13.51,13.51,0,0,1-13.51,13.51H204a0,0,0,0,1,0,0v-27A0,0,0,0,1,204,197.61Z" transform="translate(44.8 467.04) rotate(-90)"/><text class="cls-5" transform="translate(229.3 364.59)">$</text><path class="cls-6" d="M231.39,243.72a34.67,34.67,0,0,0,49.07,0"/><path class="cls-6" d="M204.34,271.34a72.91,72.91,0,0,0,103.17,0"/><path class="cls-6" d="M181.21,293.88a105.6,105.6,0,0,0,149.43,0"/><path class="cls-6" d="M153.1,320.76a145.32,145.32,0,0,0,205.64,0"/><path class="cls-6" d="M121.82,350.82a189.54,189.54,0,0,0,268.21,0"/></svg>